<?xml version="1.0" encoding="iso-8859-1"?>
<!-- Generator: Adobe Illustrator 19.0.0, SVG Export Plug-In . SVG Version: 6.00 Build 0)  -->
<svg version="1.1" id="Layer_1" xmlns="http://www.w3.org/2000/svg" xmlns:xlink="http://www.w3.org/1999/xlink" x="0px" y="0px"
fill="#003c64"
	 viewBox="0 0 512 512" style="enable-background:new 0 0 512 512;" xml:space="preserve" >
<g>
	<g>
		<path d="M256,0c-50.244,0-76.8,13.278-76.8,38.4s26.556,38.4,76.8,38.4s76.8-13.278,76.8-38.4S306.244,0,256,0z M256,51.2
			c-28.279,0-51.2-5.734-51.2-12.8c0-7.066,22.921-12.8,51.2-12.8c28.279,0,51.2,5.734,51.2,12.8
			C307.2,45.466,284.279,51.2,256,51.2z"/>
	</g>
</g>
<g>
	<g>
		<path d="M472.252,412.305c-34.833-17.417-42.889-57.464-50.68-96.188c-8.499-42.24-19.072-94.814-75.75-94.814h-0.009
			c-1.818,0-3.763,0.239-5.675,0.418c3.311-9.344,5.453-19.243,5.453-29.713C345.6,142.592,305.408,102.4,256,102.4
			s-89.6,40.192-89.6,89.6c0,10.462,2.142,20.369,5.453,29.713c-1.911-0.179-3.857-0.418-5.675-0.418h-0.009
			c-56.67,0-67.243,52.574-75.75,94.814c-7.791,38.724-15.846,78.771-50.679,96.188c-8.661,4.344-14.14,13.21-14.14,22.904
			c0,9.694,5.478,18.56,14.148,22.895c12.621,6.315,27.486,9.515,44.177,9.515c9.387,0,19.226-1.417,29.193-3.345
			c-1.041,1.425-2.057,2.867-3.226,4.036c-7.322,7.322-9.506,18.33-5.547,27.895C108.305,505.762,117.649,512,128,512h256
			c10.351,0,19.686-6.238,23.646-15.804c3.959-9.566,1.775-20.574-5.547-27.896c-1.169-1.161-2.185-2.611-3.226-4.036
			c9.967,1.929,19.806,3.345,29.193,3.345c16.691,0,31.548-3.2,44.177-9.515c8.678-4.335,14.157-13.201,14.157-22.895
			C486.4,425.506,480.922,416.64,472.252,412.305z M124.8,435.081c-14.276,4.062-28.237,6.929-40.875,6.929
			c-12.203,0-23.33-2.116-32.725-6.81c89.822-44.911,41.754-188.314,114.987-188.305c6.46,0,14.438,1.766,23.074,4.301
			c4.651,5.24,9.728,10.061,15.479,14.097c-56.474,23.467-66.253,86.844-73.097,131.883
			C129.664,410.189,127.616,423.33,124.8,435.081z M243.2,486.4c-46.754,0-91.733,0-115.2,0
			c49.34-49.34,4.079-193.331,115.2-203.785V486.4z M192,192c0-35.345,28.655-64,64-64c35.345,0,64,28.655,64,64
			c0,35.345-28.655,64-64,64C220.655,256,192,227.345,192,192z M268.8,486.4V282.615C379.921,293.069,334.66,437.06,384,486.4
			C360.533,486.4,315.554,486.4,268.8,486.4z M428.075,442.01c-12.638,0-26.598-2.867-40.883-6.929
			c-2.816-11.759-4.864-24.892-6.844-37.905c-6.844-45.039-16.623-108.416-73.096-131.883c5.751-4.036,10.829-8.858,15.479-14.097
			c8.644-2.526,16.623-4.301,23.074-4.301c73.242-0.009,25.173,143.394,114.995,188.305
			C451.405,439.893,440.277,442.01,428.075,442.01z"/>
	</g>
</g>
<g>
</g>
<g>
</g>
<g>
</g>
<g>
</g>
<g>
</g>
<g>
</g>
<g>
</g>
<g>
</g>
<g>
</g>
<g>
</g>
<g>
</g>
<g>
</g>
<g>
</g>
<g>
</g>
<g>
</g>
</svg>
